<?xml version="1.0" encoding="UTF-8" ?>
<!DOCTYPE svg PUBLIC "-//W3C//DTD SVG 1.1//EN" "http://www.w3.org/Graphics/SVG/1.1/DTD/svg11.dtd">
<svg width="168pt" height="160pt" viewBox="0 0 168 160" version="1.1" xmlns="http://www.w3.org/2000/svg">
<g id="#ffffffff">
</g>
<g id="#e3933bff">
<path fill="#e3933b" opacity="1.00" d=" M 20.99 10.97 C 27.27 6.69 35.81 6.46 42.70 9.33 C 59.38 25.85 76.10 42.34 92.65 58.99 C 74.34 77.25 55.91 95.38 37.59 113.62 C 33.37 119.88 32.17 127.97 34.09 135.25 C 25.95 133.89 17.80 129.90 13.23 122.79 C 9.89 117.89 7.67 112.00 7.92 106.00 C 7.89 82.68 7.91 59.37 7.91 36.06 C 7.41 26.19 12.71 16.29 20.99 10.97 Z" />
</g>
<g id="#5333daff">
<path fill="#5333da" opacity="1.00" d=" M 124.45 27.49 C 130.38 24.94 137.44 24.82 143.25 27.80 C 153.42 32.53 159.41 44.01 159.09 55.01 C 159.12 78.35 159.10 101.69 159.06 125.04 C 159.13 139.83 146.08 153.20 131.25 153.45 C 103.97 153.72 76.68 153.49 49.40 153.56 C 41.76 150.31 36.25 143.18 34.09 135.25 C 60.04 135.63 86.01 135.21 111.96 135.44 C 113.94 135.41 115.95 135.57 117.90 135.15 C 132.47 128.87 138.42 108.63 129.51 95.50 C 125.63 90.72 120.69 86.97 116.36 82.62 C 108.52 74.76 100.67 66.92 92.79 59.12 C 103.03 48.31 113.86 37.99 124.45 27.49 Z" />
</g>
<g id="#4d1db3ff">
<path fill="#4d1db3" opacity="1.00" d=" M 92.65 58.99 L 92.79 59.12 C 100.67 66.92 108.52 74.76 116.36 82.62 C 120.69 86.97 125.63 90.72 129.51 95.50 C 138.42 108.63 132.47 128.87 117.90 135.15 C 115.95 135.57 113.94 135.41 111.96 135.44 C 86.01 135.21 60.04 135.63 34.09 135.25 C 32.17 127.97 33.37 119.88 37.59 113.62 C 55.91 95.38 74.34 77.25 92.65 58.99 Z" />
</g>
</svg>
