<?xml version="1.0" encoding="UTF-8" ?>
<!DOCTYPE svg PUBLIC "-//W3C//DTD SVG 1.1//EN" "http://www.w3.org/Graphics/SVG/1.1/DTD/svg11.dtd">
<svg width="436pt" height="424pt" viewBox="0 0 436 424" version="1.1" xmlns="http://www.w3.org/2000/svg">
<g id="#fefefeff">
</g>
<g id="#e3933bff">
<path fill="#e3933b" opacity="1.00" d=" M 139.93 113.99 C 140.22 100.83 151.14 87.29 164.95 87.49 C 169.08 87.52 173.83 87.89 176.71 91.24 C 192.63 107.24 208.82 122.96 224.66 139.04 C 208.16 155.40 191.65 171.77 175.13 188.11 C 172.82 190.45 170.19 192.57 168.51 195.43 C 165.12 201.38 164.40 208.67 166.13 215.25 C 158.87 214.00 151.66 210.82 146.89 205.05 C 142.59 199.70 139.70 192.96 139.91 186.01 C 139.93 162.00 139.89 137.99 139.93 113.99 Z" />
</g>
<g id="#5029c8ff">
<path fill="#5029c8" opacity="1.00" d=" M 253.37 110.46 C 257.54 105.27 265.12 104.92 271.14 106.27 C 283.17 109.46 291.07 121.83 291.07 133.94 C 291.14 157.27 291.06 180.60 291.08 203.94 C 291.48 216.62 282.37 228.99 270.09 232.28 C 266.84 233.29 263.40 233.50 260.01 233.54 C 234.36 233.54 208.70 233.52 183.05 233.55 C 180.46 233.76 178.39 231.96 176.39 230.60 C 171.26 226.91 167.84 221.27 166.13 215.25 C 164.40 208.67 165.12 201.38 168.51 195.43 C 170.19 192.57 172.82 190.45 175.13 188.11 C 191.65 171.77 208.16 155.40 224.66 139.04 C 234.19 129.47 243.83 120.01 253.37 110.46 Z" />
</g>
<g id="#333333ff">
<path fill="#333333" opacity="1.00" d=" M 35.68 258.07 C 35.72 255.68 35.92 251.85 39.10 251.74 C 42.25 251.48 45.70 250.96 48.70 252.13 C 52.84 258.10 53.98 265.55 56.76 272.18 C 60.00 265.92 60.69 258.57 64.37 252.51 C 67.13 250.66 70.82 251.65 73.97 251.64 C 77.49 251.38 78.21 255.38 78.08 258.05 C 78.09 270.03 78.19 282.01 78.03 293.99 C 78.59 299.54 67.94 299.65 68.71 293.92 C 68.47 284.13 68.87 274.32 68.52 264.53 C 64.65 270.93 63.75 278.76 60.41 285.47 C 59.37 287.54 56.85 287.20 54.91 287.34 C 49.71 280.76 49.69 271.52 45.23 264.53 C 44.92 274.35 45.31 284.18 45.04 294.00 C 45.72 299.62 35.24 299.55 35.74 294.04 C 35.58 282.06 35.70 270.06 35.68 258.07 Z" />
<path fill="#333333" opacity="1.00" d=" M 93.87 255.77 C 94.52 253.42 96.62 251.68 99.10 251.65 C 102.77 251.36 108.25 250.84 109.77 255.17 C 112.24 262.28 114.03 269.62 116.31 276.79 C 118.26 282.31 117.88 288.28 117.75 294.03 C 117.80 295.88 116.23 297.02 115.11 298.25 C 112.94 298.05 110.16 298.23 109.10 295.86 C 108.16 292.94 108.68 289.78 108.59 286.76 C 104.14 286.78 99.70 286.71 95.25 286.79 C 95.33 289.57 95.50 292.38 95.08 295.15 C 93.91 299.53 85.91 298.98 86.14 294.09 C 86.02 288.22 85.54 282.13 87.59 276.51 C 89.77 269.62 91.69 262.65 93.87 255.77 M 101.82 259.59 C 99.96 265.65 98.43 271.81 96.72 277.92 C 100.24 277.94 103.76 278.01 107.28 278.01 C 105.35 271.90 104.37 265.46 101.82 259.59 Z" />
<path fill="#333333" opacity="1.00" d=" M 128.29 252.35 C 130.60 251.05 134.00 251.23 135.76 253.38 C 137.01 255.31 136.93 257.70 137.00 259.91 C 136.99 269.95 137.00 279.99 137.00 290.03 C 136.90 292.25 137.03 294.74 135.59 296.61 C 133.98 298.47 131.20 298.15 129.02 297.79 C 126.34 296.77 125.97 293.50 125.95 291.02 C 125.92 280.34 125.94 269.66 125.94 258.99 C 126.02 256.66 126.08 253.74 128.29 252.35 Z" />
<path fill="#333333" opacity="1.00" d=" M 149.16 254.18 C 150.48 250.87 155.63 250.70 157.67 253.36 C 158.86 255.36 158.72 257.76 158.78 259.99 C 158.76 269.41 158.77 278.83 158.77 288.24 C 162.77 288.35 166.94 287.84 170.79 289.20 C 174.02 291.32 172.98 297.17 169.00 297.79 C 163.62 298.22 158.19 297.98 152.80 297.94 C 150.62 297.97 148.48 296.16 148.52 293.91 C 148.33 283.29 148.52 272.65 148.43 262.02 C 148.50 259.40 148.21 256.68 149.16 254.18 Z" />
<path fill="#333333" opacity="1.00" d=" M 179.98 257.99 C 179.83 255.30 180.61 251.36 184.13 251.63 C 187.43 251.77 192.34 250.10 194.18 253.79 C 197.14 259.63 198.66 266.07 201.04 272.16 C 204.47 265.79 204.85 257.98 209.13 252.05 C 212.26 251.03 215.71 251.46 218.95 251.74 C 222.13 251.88 222.33 255.69 222.37 258.08 C 222.37 270.04 222.47 282.00 222.32 293.95 C 222.96 299.48 212.45 299.68 213.00 294.08 C 212.78 284.24 213.10 274.38 212.85 264.54 C 208.83 270.91 208.08 278.90 204.63 285.61 C 203.14 288.03 198.97 287.91 197.60 285.42 C 194.37 278.69 193.24 271.02 189.56 264.52 C 189.19 274.33 189.62 284.16 189.35 293.97 C 190.04 299.61 179.62 299.54 180.03 294.09 C 179.89 282.06 179.98 270.02 179.98 257.99 Z" />
<path fill="#333333" opacity="1.00" d=" M 237.82 256.74 C 238.42 254.21 240.25 251.70 243.10 251.69 C 246.84 251.37 252.45 250.75 254.05 255.15 C 256.49 262.13 258.25 269.35 260.49 276.41 C 262.53 282.04 262.21 288.14 262.03 294.03 C 262.21 298.60 255.08 299.59 253.37 295.73 C 252.59 292.81 252.99 289.74 252.90 286.75 C 248.46 286.74 244.03 286.74 239.59 286.75 C 239.42 289.82 240.03 293.06 238.95 296.00 C 237.80 298.34 235.03 297.98 232.87 298.14 C 231.77 296.94 230.33 295.76 230.42 293.97 C 230.27 289.60 230.17 285.19 230.71 280.85 C 232.87 272.75 235.52 264.80 237.82 256.74 M 240.98 278.00 C 244.50 278.00 248.03 278.00 251.56 278.00 C 249.84 271.85 248.29 265.66 246.43 259.55 C 243.90 265.45 242.90 271.89 240.98 278.00 Z" />
<path fill="#333333" opacity="1.00" d=" M 269.41 257.08 C 269.42 254.78 270.19 251.56 273.09 251.69 C 279.84 251.56 287.14 250.49 293.40 253.64 C 300.03 256.63 301.91 266.12 297.85 271.89 C 296.56 274.12 294.07 275.08 291.94 276.28 C 293.68 277.39 295.67 278.40 296.71 280.29 C 298.81 283.40 298.21 287.32 298.41 290.86 C 299.99 292.69 300.81 295.79 298.48 297.40 C 295.44 299.25 290.49 298.38 288.76 295.06 C 287.20 290.32 289.82 284.60 286.68 280.32 C 284.56 278.89 281.82 279.39 279.42 279.20 C 279.25 284.46 279.83 289.79 279.00 295.01 C 278.14 299.23 270.55 299.26 269.76 294.98 C 269.22 292.69 269.38 290.31 269.34 287.98 C 269.42 277.68 269.26 267.38 269.41 257.08 M 279.42 259.23 C 279.41 263.41 279.42 267.59 279.42 271.78 C 282.16 271.65 285.19 272.15 287.65 270.61 C 290.75 268.20 290.83 262.62 287.60 260.29 C 285.14 258.81 282.14 259.36 279.42 259.23 Z" />
<path fill="#333333" opacity="1.00" d=" M 309.23 252.22 C 311.98 250.89 316.64 251.31 317.06 255.03 C 317.84 260.27 317.34 265.62 317.39 270.90 C 318.66 270.97 319.94 271.01 321.23 271.04 C 323.76 265.23 325.50 259.05 328.68 253.54 C 330.94 249.24 338.30 252.35 337.32 256.98 C 335.73 263.08 332.66 268.69 330.33 274.54 C 335.38 276.98 336.81 282.91 336.43 288.07 C 335.77 291.09 339.37 293.63 337.49 296.52 C 334.79 299.67 328.64 298.64 326.77 295.01 C 325.26 290.26 327.84 284.56 324.69 280.28 C 322.54 278.95 319.86 279.36 317.45 279.20 C 317.25 284.43 317.94 289.76 316.95 294.93 C 316.32 298.03 312.67 298.54 310.10 297.80 C 307.59 296.61 307.41 293.49 307.34 291.06 C 307.30 280.36 307.33 269.65 307.33 258.95 C 307.41 256.63 307.40 253.91 309.23 252.22 Z" />
<path fill="#333333" opacity="1.00" d=" M 348.39 252.54 C 350.63 251.05 354.09 251.14 355.96 253.21 C 357.45 255.11 357.26 257.68 357.36 259.96 C 357.34 269.97 357.35 279.97 357.36 289.97 C 357.24 292.26 357.43 294.91 355.81 296.75 C 354.10 298.45 351.33 298.26 349.19 297.67 C 346.61 296.58 346.37 293.39 346.31 290.97 C 346.28 280.28 346.29 269.60 346.30 258.91 C 346.37 256.69 346.45 254.00 348.39 252.54 Z" />
<path fill="#333333" opacity="1.00" d=" M 364.18 253.17 C 366.62 251.01 370.08 251.55 373.07 251.48 C 379.02 251.62 384.99 251.28 390.93 251.62 C 394.43 251.70 396.51 255.70 394.70 258.64 C 392.27 261.84 387.78 260.70 384.31 261.03 C 384.34 271.01 384.34 280.99 384.32 290.97 C 384.19 292.94 384.35 295.17 383.03 296.80 C 381.50 298.45 378.99 298.12 376.99 297.83 C 374.28 296.75 374.23 293.45 374.21 291.00 C 374.20 281.01 374.22 271.02 374.21 261.03 C 371.40 260.87 368.43 261.24 365.76 260.27 C 363.03 259.11 362.45 255.39 364.18 253.17 Z" />
</g>
</svg>
