<?xml version="1.0" encoding="UTF-8" ?>
<!DOCTYPE svg PUBLIC "-//W3C//DTD SVG 1.1//EN" "http://www.w3.org/Graphics/SVG/1.1/DTD/svg11.dtd">
<svg width="391pt" height="186pt" viewBox="0 0 391 186" version="1.1" xmlns="http://www.w3.org/2000/svg">
<g id="#000000ff">
</g>
<g id="#3e3e3eff">
</g>
<g id="#b06008ff">
<path fill="#b06008" opacity="1.00" d=" M 59.18 76.12 C 62.55 73.28 68.56 72.72 71.58 76.35 C 78.35 83.02 84.81 90.03 91.91 96.35 L 91.55 96.71 C 85.22 102.99 78.93 109.31 72.58 115.56 C 70.57 117.58 68.32 119.45 66.82 121.90 C 65.30 124.43 65.69 127.51 65.58 130.33 C 59.18 129.45 53.94 123.56 54.45 116.99 C 54.45 106.63 54.37 96.27 54.49 85.91 C 54.44 82.13 56.09 78.37 59.18 76.12 Z" />
</g>
<g id="#2000a7ff">
<path fill="#2000a7" opacity="1.00" d=" M 104.72 83.76 C 106.99 81.38 110.72 81.39 113.60 82.54 C 117.94 84.53 120.99 89.10 120.97 93.91 C 121.10 104.28 120.98 114.65 121.03 125.02 C 121.34 131.61 115.78 138.44 108.92 138.22 C 97.29 138.30 85.66 138.24 74.03 138.25 C 69.52 138.39 67.40 133.70 65.58 130.33 C 76.41 130.15 87.24 130.23 98.06 130.31 C 100.62 130.22 103.47 130.29 105.58 128.60 C 109.25 125.83 110.43 120.73 109.51 116.38 C 108.79 113.27 106.38 110.99 104.22 108.80 C 99.98 104.79 96.05 100.44 91.55 96.71 L 91.91 96.35 C 96.21 92.18 100.42 87.92 104.72 83.76 Z" />
</g>
<g id="#ffffffff">
<path fill="#ffffff" opacity="1.00" d=" M 131.55 95.12 C 131.73 91.51 136.85 91.73 139.21 92.80 C 141.78 96.18 142.25 100.65 143.88 104.51 C 145.54 101.11 146.19 97.32 147.86 93.93 C 148.83 91.48 151.91 92.26 153.94 92.36 C 155.77 92.43 156.60 94.28 156.48 95.89 C 156.50 103.15 156.65 110.43 156.41 117.68 C 156.39 120.33 151.57 120.64 151.09 118.12 C 150.65 111.96 151.14 105.77 150.88 99.59 C 148.87 103.64 147.96 108.11 146.14 112.23 C 145.41 114.00 142.66 114.00 141.87 112.30 C 140.04 108.17 139.00 103.75 137.24 99.59 C 136.72 105.71 137.38 111.88 136.89 118.00 C 136.61 120.64 131.60 120.39 131.56 117.70 C 131.38 110.18 131.41 102.64 131.55 95.12 Z" />
<path fill="#ffffff" opacity="1.00" d=" M 165.14 96.93 C 165.76 95.34 165.95 92.86 167.98 92.47 C 170.13 92.26 172.92 91.69 174.63 93.33 C 176.49 97.20 177.18 101.51 178.60 105.55 C 180.02 109.55 180.30 113.89 179.78 118.08 C 179.39 119.82 177.59 119.99 176.11 119.70 C 173.69 118.47 174.81 115.18 174.47 113.00 C 171.88 113.00 169.30 113.00 166.71 113.00 C 166.43 115.26 167.55 119.67 164.11 119.79 C 161.30 120.34 161.00 116.98 161.16 115.02 C 160.69 108.69 163.72 102.94 165.14 96.93 M 170.58 96.71 C 169.49 100.46 168.50 104.23 167.48 108.00 C 169.56 108.00 171.64 108.00 173.73 108.00 C 172.71 104.23 171.76 100.44 170.58 96.71 Z" />
<path fill="#ffffff" opacity="1.00" d=" M 216.95 93.99 C 218.22 91.55 222.08 91.92 224.28 92.73 C 226.98 96.15 227.40 100.78 229.18 104.68 C 230.35 101.58 231.18 98.35 232.37 95.26 C 233.00 94.14 233.72 93.06 234.44 92.00 C 236.59 92.35 239.04 91.94 240.95 93.18 C 242.03 95.20 241.56 97.61 241.72 99.80 C 241.71 100.99 241.69 102.17 241.68 103.36 C 241.58 108.15 241.86 112.96 241.57 117.75 C 241.46 120.18 237.43 120.54 236.38 118.63 C 235.51 112.33 236.09 105.97 236.00 99.64 C 234.35 103.34 232.89 107.19 232.24 111.20 C 231.90 111.74 231.21 112.81 230.86 113.34 C 229.56 113.28 227.57 113.86 227.09 112.14 C 225.29 107.95 224.35 103.42 222.10 99.42 C 221.86 105.63 222.42 111.84 222.01 118.04 C 221.64 120.93 216.04 120.18 216.67 117.08 C 216.54 113.07 216.67 109.06 216.62 105.05 C 216.62 101.36 216.64 97.67 216.95 93.99 Z" />
<path fill="#ffffff" opacity="1.00" d=" M 251.80 92.66 C 252.95 92.53 254.09 92.40 255.24 92.30 C 257.11 92.15 259.79 92.17 260.35 94.44 C 262.51 102.14 266.25 109.84 264.94 118.05 C 264.57 119.91 262.60 119.97 261.10 119.67 C 258.99 118.17 259.92 115.18 259.63 113.00 C 257.05 113.00 254.46 113.00 251.88 113.00 C 251.61 115.17 252.40 117.87 250.64 119.56 C 249.31 119.89 247.29 120.12 246.72 118.51 C 245.52 113.12 246.84 107.60 248.70 102.51 C 249.25 100.68 249.75 98.84 250.30 97.01 C 250.74 95.54 251.26 94.09 251.80 92.66 M 255.78 96.75 C 254.63 100.47 253.65 104.24 252.64 108.00 C 254.72 108.00 256.80 108.00 258.89 108.00 C 257.88 104.24 256.92 100.47 255.78 96.75 Z" />
<path fill="#ffffff" opacity="1.00" d=" M 269.49 95.11 C 269.37 93.20 271.21 92.17 272.92 92.28 C 277.26 92.23 282.62 91.53 285.75 95.29 C 288.89 98.94 287.59 105.14 282.99 106.89 C 287.31 109.04 286.08 114.25 287.40 118.07 C 287.04 119.73 285.12 119.73 283.89 120.33 C 282.84 119.54 281.55 119.01 280.75 117.94 C 280.43 115.02 280.72 112.05 280.00 109.18 C 278.45 108.96 276.90 108.77 275.34 108.63 C 275.28 111.73 275.56 114.86 275.08 117.95 C 274.39 120.67 269.86 120.44 269.56 117.58 C 269.23 110.11 269.38 102.59 269.49 95.11 M 275.34 96.87 C 275.33 99.39 275.33 101.91 275.36 104.43 C 278.08 104.46 282.24 103.79 281.54 100.06 C 281.64 96.65 277.62 97.06 275.34 96.87 Z" />
<path fill="#ffffff" opacity="1.00" d=" M 292.96 92.97 C 294.36 91.65 297.14 92.44 297.52 94.37 C 298.05 97.55 297.69 100.80 297.81 104.00 C 298.35 103.88 299.44 103.64 299.99 103.52 C 301.77 100.25 302.47 96.49 304.45 93.33 C 306.09 90.88 310.66 93.19 309.39 96.00 C 308.34 99.33 306.76 102.45 305.48 105.70 C 309.81 108.39 308.55 113.74 309.87 117.92 C 309.77 120.36 306.00 120.41 304.46 119.31 C 301.38 116.78 304.41 112.02 301.98 109.15 C 300.59 108.89 299.19 108.70 297.79 108.59 C 297.60 111.81 298.29 115.22 297.26 118.33 C 296.67 120.06 294.61 119.59 293.21 119.91 C 292.64 118.65 291.79 117.43 291.85 115.99 C 291.74 109.65 291.82 103.31 291.81 96.97 C 291.94 95.64 291.70 93.85 292.96 92.97 Z" />
<path fill="#ffffff" opacity="1.00" d=" M 326.68 92.57 C 330.74 91.86 334.94 92.40 339.06 92.24 C 340.97 92.22 343.91 92.48 343.76 95.09 C 343.62 98.49 339.54 97.69 337.25 97.80 C 337.22 103.89 337.34 109.98 337.22 116.07 C 337.29 117.49 336.44 118.69 335.88 119.92 C 334.20 119.71 331.75 119.94 331.47 117.68 C 331.00 111.07 331.41 104.43 331.28 97.81 C 329.66 97.74 328.02 97.84 326.42 97.57 C 324.20 96.77 324.20 92.96 326.68 92.57 Z" />
<path fill="#ffffff" opacity="1.00" d=" M 184.89 94.99 C 184.97 91.49 190.95 91.48 191.11 94.90 C 191.47 101.60 191.19 108.32 191.26 115.02 C 191.43 116.73 190.68 118.26 189.89 119.72 C 188.63 119.72 187.38 119.72 186.12 119.72 C 185.33 118.26 184.57 116.72 184.75 115.00 C 184.83 108.33 184.55 101.65 184.89 94.99 Z" />
<path fill="#ffffff" opacity="1.00" d=" M 198.19 94.83 C 198.31 91.45 204.08 91.58 203.99 95.00 C 204.32 101.31 204.04 107.65 204.12 113.97 C 206.82 113.94 209.56 113.89 212.15 114.77 C 212.13 116.39 212.82 119.07 210.52 119.44 C 207.10 120.03 203.53 119.82 200.08 119.59 C 197.72 119.32 198.06 116.73 198.02 114.98 C 198.14 108.27 197.80 101.53 198.19 94.83 Z" />
<path fill="#ffffff" opacity="1.00" d=" M 314.96 95.00 C 315.03 91.46 321.14 91.47 321.18 95.02 C 321.54 101.68 321.26 108.36 321.33 115.03 C 321.51 116.80 320.69 118.37 319.85 119.86 C 317.78 119.94 314.98 119.67 314.94 116.96 C 314.72 109.65 314.69 102.30 314.96 95.00 Z" />
</g>
<g id="#4313a9ff">
<path fill="#4313a9" opacity="1.00" d=" M 72.58 115.56 C 78.93 109.31 85.22 102.99 91.55 96.71 C 96.05 100.44 99.98 104.79 104.22 108.80 C 106.38 110.99 108.79 113.27 109.51 116.38 C 110.43 120.73 109.25 125.83 105.58 128.60 C 103.47 130.29 100.62 130.22 98.06 130.31 C 87.24 130.23 76.41 130.15 65.58 130.33 C 65.69 127.51 65.30 124.43 66.82 121.90 C 68.32 119.45 70.57 117.58 72.58 115.56 Z" />
</g>
</svg>
