<?xml version="1.0" encoding="UTF-8" ?>
<!DOCTYPE svg PUBLIC "-//W3C//DTD SVG 1.1//EN" "http://www.w3.org/Graphics/SVG/1.1/DTD/svg11.dtd">
<svg width="365pt" height="326pt" viewBox="0 0 365 326" version="1.1" xmlns="http://www.w3.org/2000/svg">
<g id="#3f3f3fff">
</g>
<g id="#bc6c14ff">
<path fill="#bc6c14" opacity="1.00" d=" M 106.90 70.95 C 106.64 57.94 116.60 44.65 129.89 43.20 C 134.73 42.86 140.40 43.27 143.85 47.15 C 159.70 63.10 175.78 78.82 191.61 94.79 C 173.80 112.62 155.90 130.36 138.04 148.13 C 132.21 154.21 131.40 163.35 132.93 171.27 C 119.08 169.41 107.01 157.21 106.94 142.96 C 106.86 118.96 106.96 94.95 106.90 70.95 Z" />
</g>
<g id="#2d0db4ff">
<path fill="#2d0db4" opacity="1.00" d=" M 221.29 65.27 C 224.19 61.96 228.95 61.79 233.02 61.51 C 243.46 61.64 252.51 69.52 255.97 79.06 C 257.71 83.14 258.23 87.60 258.11 92.01 C 258.04 115.02 258.13 138.04 258.07 161.05 C 258.12 170.08 253.12 178.65 246.02 184.02 C 240.28 188.27 232.98 189.78 225.94 189.57 C 200.06 189.45 174.16 189.78 148.30 189.41 C 140.78 186.39 135.32 179.30 133.28 171.55 C 137.85 171.25 142.44 171.12 147.02 171.17 C 168.67 171.29 190.33 171.09 211.98 171.27 C 214.36 171.19 216.85 171.10 219.03 170.01 C 233.39 162.32 237.70 139.98 225.80 128.32 C 214.40 117.23 203.35 105.77 191.72 94.91 C 201.42 84.87 211.53 75.24 221.29 65.27 Z" />
</g>
<g id="#4515abff">
<path fill="#4515ab" opacity="1.00" d=" M 191.61 94.79 L 191.72 94.91 C 203.35 105.77 214.40 117.23 225.80 128.32 C 237.70 139.98 233.39 162.32 219.03 170.01 C 216.85 171.10 214.36 171.19 211.98 171.27 C 190.33 171.09 168.67 171.29 147.02 171.17 C 142.44 171.12 137.85 171.25 133.28 171.55 L 132.97 171.57 L 132.93 171.27 C 131.40 163.35 132.21 154.21 138.04 148.13 C 155.90 130.36 173.80 112.62 191.61 94.79 Z" />
</g>
<g id="#ffffffff">
<path fill="#ffffff" opacity="1.00" d=" M 53.62 213.01 C 53.57 210.74 53.89 207.23 56.93 207.37 C 59.68 207.29 63.99 206.40 65.22 209.72 C 67.31 214.37 68.60 219.33 70.48 224.08 C 72.60 218.72 73.43 212.71 76.70 207.89 C 79.24 207.00 82.04 207.05 84.66 207.51 C 87.24 207.78 87.11 211.05 87.24 213.00 C 87.20 222.34 87.37 231.69 87.17 241.02 C 87.58 245.42 79.33 245.53 79.82 241.02 C 79.52 233.21 80.03 225.38 79.57 217.57 C 76.89 222.92 75.76 228.89 73.20 234.29 C 72.09 236.60 68.06 236.26 67.36 233.75 C 65.09 228.44 63.70 222.79 61.36 217.51 C 60.74 225.34 61.40 233.21 61.02 241.05 C 61.48 245.51 53.29 245.42 53.69 241.03 C 53.52 231.69 53.66 222.35 53.62 213.01 Z" />
<path fill="#ffffff" opacity="1.00" d=" M 96.78 210.66 C 97.88 206.82 102.76 206.92 105.92 207.52 C 108.86 207.88 109.65 211.05 110.38 213.43 C 112.89 222.89 117.31 232.34 115.39 242.36 C 114.61 244.78 111.24 244.38 109.37 243.56 C 107.83 241.09 108.56 238.01 108.36 235.26 C 104.86 235.25 101.36 235.25 97.86 235.25 C 97.60 237.99 98.52 241.22 96.76 243.58 C 94.83 244.50 91.15 244.68 90.71 241.99 C 90.28 236.91 90.19 231.64 91.82 226.75 C 93.52 221.40 94.96 215.97 96.78 210.66 M 98.94 228.25 C 101.73 228.25 104.53 228.25 107.32 228.25 C 105.95 223.37 104.71 218.45 103.12 213.63 C 101.59 218.47 100.32 223.37 98.94 228.25 Z" />
<path fill="#ffffff" opacity="1.00" d=" M 136.36 207.54 C 138.82 206.65 142.06 207.93 141.91 210.90 C 142.36 219.41 141.96 227.95 142.10 236.48 C 145.29 236.57 148.66 236.15 151.66 237.45 C 154.34 239.03 153.21 244.11 149.93 244.11 C 145.64 244.40 141.32 244.36 137.04 244.15 C 134.77 244.28 133.70 241.98 133.91 240.04 C 133.86 231.01 133.87 221.97 133.91 212.94 C 134.06 211.04 134.03 208.10 136.36 207.54 Z" />
<path fill="#ffffff" opacity="1.00" d=" M 156.78 207.79 C 159.96 207.11 163.22 207.14 166.42 207.72 C 169.19 212.87 170.54 218.61 172.69 224.02 C 174.87 218.71 175.64 212.70 178.91 207.93 C 181.80 206.91 185.16 206.91 188.06 207.89 C 189.73 209.42 189.33 211.95 189.49 213.99 C 189.41 222.98 189.60 231.97 189.41 240.96 C 189.89 245.39 181.61 245.58 182.05 241.06 C 181.76 233.22 182.22 225.35 181.83 217.51 C 179.22 222.70 178.05 228.46 175.71 233.76 C 175.00 236.29 170.97 236.59 169.85 234.27 C 167.36 228.87 166.07 222.99 163.55 217.58 C 162.96 225.69 163.73 233.83 163.16 241.93 C 162.59 245.64 155.54 245.00 155.91 241.06 C 155.70 232.38 155.93 223.70 155.81 215.02 C 155.71 212.57 156.08 210.14 156.78 207.79 Z" />
<path fill="#ffffff" opacity="1.00" d=" M 199.56 209.47 C 201.49 206.66 205.62 207.03 208.56 207.63 C 211.34 208.18 211.87 211.29 212.65 213.55 C 215.16 223.03 219.61 232.54 217.56 242.56 C 216.56 244.78 213.28 244.37 211.45 243.45 C 210.17 240.92 210.73 237.98 210.59 235.26 C 207.09 235.26 203.60 235.26 200.11 235.25 C 199.97 237.93 200.42 240.77 199.35 243.31 C 197.53 244.62 195.30 243.97 193.30 243.65 C 192.08 237.10 192.58 230.27 194.88 224.01 C 196.53 219.20 197.52 214.15 199.56 209.47 M 205.37 213.62 C 203.83 218.46 202.56 223.37 201.17 228.25 C 203.96 228.25 206.76 228.25 209.55 228.25 C 208.17 223.37 206.91 218.45 205.37 213.62 Z" />
<path fill="#ffffff" opacity="1.00" d=" M 220.67 212.00 C 220.78 210.35 220.97 207.69 223.11 207.54 C 228.42 207.10 234.14 206.59 239.17 208.78 C 244.21 210.76 246.16 217.37 244.08 222.12 C 243.17 224.56 240.64 225.69 238.62 227.04 C 243.12 228.98 244.04 233.97 243.72 238.36 C 244.42 239.84 245.62 241.70 244.22 243.18 C 241.88 245.31 237.41 244.92 236.00 241.87 C 235.03 238.35 236.28 234.52 235.02 231.06 C 233.67 228.90 230.77 229.46 228.62 229.14 C 228.51 233.28 228.89 237.45 228.35 241.57 C 227.96 244.58 223.64 245.15 221.70 243.32 C 220.42 241.88 220.77 239.79 220.62 238.03 C 220.67 229.35 220.54 220.67 220.67 212.00 M 228.62 213.42 C 228.61 216.81 228.61 220.20 228.62 223.59 C 230.88 223.40 233.45 223.78 235.35 222.27 C 237.17 220.68 237.36 217.79 236.34 215.72 C 234.66 213.16 231.27 213.55 228.62 213.42 Z" />
<path fill="#ffffff" opacity="1.00" d=" M 249.00 207.99 C 251.01 206.87 254.62 206.96 255.24 209.66 C 256.18 213.95 255.55 218.40 255.72 222.75 C 256.48 222.75 258.01 222.74 258.77 222.74 C 260.78 218.08 262.19 213.12 264.76 208.72 C 266.71 205.99 271.59 207.54 271.51 210.96 C 270.67 216.11 267.78 220.65 266.00 225.52 C 270.60 228.11 271.02 233.55 270.90 238.27 C 271.61 239.80 272.88 241.82 271.28 243.28 C 268.93 245.28 264.50 244.89 263.13 241.87 C 262.22 238.56 263.26 235.00 262.31 231.68 C 261.43 228.84 257.99 229.45 255.72 229.11 C 255.55 233.41 256.17 237.81 255.25 242.05 C 254.11 245.56 247.89 244.89 247.89 241.01 C 247.40 233.01 247.85 224.99 247.67 216.98 C 247.80 213.99 247.20 210.61 249.00 207.99 Z" />
<path fill="#ffffff" opacity="1.00" d=" M 275.73 211.04 C 275.71 206.94 280.24 206.98 283.12 207.81 C 283.78 209.82 284.42 211.88 284.33 214.03 C 284.33 222.01 284.33 229.99 284.33 237.98 C 284.17 239.87 284.45 242.34 282.66 243.57 C 279.91 245.54 275.22 243.75 275.64 239.99 C 275.53 230.35 275.35 220.67 275.73 211.04 Z" />
<path fill="#ffffff" opacity="1.00" d=" M 288.34 207.76 C 294.09 206.81 299.97 207.32 305.78 207.32 C 307.57 207.63 310.06 207.27 310.95 209.26 C 311.62 210.65 311.47 212.44 310.53 213.68 C 308.21 215.19 305.27 214.61 302.66 214.82 C 302.63 222.90 302.71 230.99 302.64 239.07 C 302.50 240.72 302.67 242.99 300.86 243.81 C 299.10 244.71 296.38 244.57 295.25 242.74 C 294.57 241.26 294.71 239.59 294.63 238.01 C 294.62 230.28 294.65 222.55 294.63 214.82 C 292.10 214.66 289.39 215.07 287.03 213.93 C 285.23 212.25 285.60 208.17 288.34 207.76 Z" />
<path fill="#ffffff" opacity="1.00" d=" M 120.25 208.27 C 122.15 207.00 124.81 206.97 126.70 208.27 C 127.92 210.29 127.82 212.72 127.87 214.99 C 127.85 222.32 127.85 229.64 127.87 236.98 C 127.80 238.95 127.95 241.07 127.01 242.89 C 124.79 245.44 119.38 244.60 119.27 240.77 C 118.82 232.87 119.24 224.94 119.07 217.03 C 119.18 214.10 118.68 210.91 120.25 208.27 Z" />
</g>
</svg>
