<?xml version="1.0" encoding="UTF-8" ?>
<!DOCTYPE svg PUBLIC "-//W3C//DTD SVG 1.1//EN" "http://www.w3.org/Graphics/SVG/1.1/DTD/svg11.dtd">
<svg width="436pt" height="424pt" viewBox="0 0 436 424" version="1.1" xmlns="http://www.w3.org/2000/svg">
<g id="#fefefeff">
</g>
<g id="#e3933bff">
<path fill="#e3933b" opacity="1.00" d=" M 139.90 115.06 C 139.75 103.05 148.15 90.92 159.98 87.95 C 165.81 87.15 173.12 86.80 177.28 91.80 C 193.01 107.61 209.01 123.15 224.66 139.04 C 207.14 156.38 189.67 173.78 172.09 191.07 C 165.57 197.05 163.98 206.95 166.13 215.25 C 156.45 213.81 147.11 208.11 142.99 198.99 C 139.92 193.50 139.68 187.12 139.91 181.00 C 139.91 159.02 139.92 137.04 139.90 115.06 Z" />
</g>
<g id="#5029c8ff">
<path fill="#5029c8" opacity="1.00" d=" M 255.98 108.00 C 261.54 104.77 268.79 104.91 274.59 107.50 C 284.79 111.95 291.02 123.07 291.07 133.98 C 291.14 157.32 291.06 180.67 291.07 204.02 C 291.45 216.64 282.39 228.93 270.20 232.25 C 264.95 233.88 259.40 233.49 253.98 233.54 C 230.32 233.54 206.66 233.52 183.00 233.55 C 180.43 233.75 178.38 231.95 176.40 230.60 C 171.26 226.92 167.84 221.27 166.13 215.25 C 163.98 206.95 165.57 197.05 172.09 191.07 C 189.67 173.78 207.14 156.38 224.66 139.04 C 235.08 128.67 245.44 118.24 255.98 108.00 Z" />
</g>
<g id="#333333ff">
</g>
</svg>
