<?xml version="1.0" encoding="UTF-8" ?>
<!DOCTYPE svg PUBLIC "-//W3C//DTD SVG 1.1//EN" "http://www.w3.org/Graphics/SVG/1.1/DTD/svg11.dtd">
<svg width="436pt" height="424pt" viewBox="0 0 436 424" version="1.1" xmlns="http://www.w3.org/2000/svg">
<g id="#fefefeff">
</g>
<g id="#e3933bff">
</g>
<g id="#5029c8ff">
</g>
<g id="#333333ff">
<path fill="#333333" opacity="1.00" d=" M 35.68 258.08 C 35.73 255.72 35.89 251.93 39.02 251.75 C 42.20 251.49 45.70 250.93 48.72 252.15 C 52.94 258.17 53.90 265.79 56.97 272.39 C 59.66 265.83 60.84 258.62 64.41 252.45 C 67.54 250.66 71.54 251.58 75.00 251.80 C 77.91 252.19 78.01 255.77 78.08 258.04 C 78.09 270.02 78.19 282.02 78.03 294.00 C 78.59 299.49 68.07 299.66 68.71 294.03 C 68.47 284.21 68.85 274.37 68.53 264.55 C 64.62 270.91 63.77 278.79 60.40 285.47 C 59.37 287.56 56.86 287.18 54.94 287.34 C 49.69 280.79 49.72 271.49 45.21 264.55 C 44.94 274.37 45.30 284.20 45.05 294.01 C 45.71 299.62 35.24 299.54 35.74 294.04 C 35.58 282.06 35.70 270.07 35.68 258.08 Z" />
<path fill="#333333" opacity="1.00" d=" M 93.86 255.78 C 94.51 253.42 96.61 251.69 99.09 251.65 C 102.79 251.35 108.30 250.84 109.78 255.22 C 112.23 262.29 114.02 269.56 116.28 276.69 C 118.27 282.23 117.88 288.24 117.75 294.02 C 117.80 295.89 116.24 297.04 115.07 298.25 C 112.92 298.06 110.13 298.23 109.12 295.85 C 108.15 292.92 108.71 289.73 108.54 286.69 C 104.13 286.82 99.72 286.74 95.31 286.75 C 95.32 289.56 95.49 292.39 95.08 295.18 C 93.86 299.53 85.89 298.97 86.13 294.07 C 86.01 288.18 85.54 282.05 87.62 276.42 C 89.78 269.56 91.70 262.63 93.86 255.78 M 96.72 277.92 C 100.24 277.95 103.76 278.00 107.28 278.01 C 105.48 271.82 104.10 265.51 101.98 259.42 C 99.87 265.48 98.50 271.76 96.72 277.92 Z" />
<path fill="#333333" opacity="1.00" d=" M 128.32 252.33 C 130.63 251.05 134.00 251.24 135.75 253.37 C 137.03 255.33 136.93 257.76 137.01 260.01 C 136.99 270.01 137.00 280.00 137.00 290.00 C 136.91 292.22 137.02 294.67 135.64 296.56 C 134.03 298.47 131.21 298.17 129.01 297.78 C 126.34 296.75 125.98 293.52 125.95 291.04 C 125.92 280.37 125.95 269.70 125.94 259.03 C 126.02 256.69 126.07 253.72 128.32 252.33 Z" />
<path fill="#333333" opacity="1.00" d=" M 149.53 253.48 C 151.16 251.00 155.10 250.98 157.21 252.84 C 158.76 254.48 158.68 256.92 158.77 259.03 C 158.78 268.77 158.76 278.51 158.77 288.25 C 162.75 288.34 166.89 287.85 170.73 289.18 C 174.04 291.23 172.99 297.21 168.98 297.80 C 163.63 298.22 158.22 297.98 152.85 297.94 C 150.64 297.99 148.44 296.14 148.52 293.85 C 148.33 282.91 148.52 271.97 148.43 261.03 C 148.51 258.50 148.21 255.76 149.53 253.48 Z" />
<path fill="#333333" opacity="1.00" d=" M 181.99 252.07 C 185.49 251.34 189.37 251.01 192.83 252.03 C 197.22 257.92 198.18 265.60 201.09 272.24 C 204.17 265.90 205.02 258.63 208.64 252.53 C 211.59 250.59 215.60 251.63 218.96 251.74 C 222.10 251.88 222.33 255.66 222.37 258.05 C 222.37 270.05 222.48 282.06 222.31 294.07 C 222.81 299.54 212.35 299.61 212.99 294.01 C 212.80 284.20 213.09 274.38 212.86 264.57 C 210.47 267.16 210.24 270.97 208.87 274.11 C 207.00 278.54 206.53 283.78 203.06 287.36 C 201.12 287.19 198.64 287.51 197.61 285.43 C 194.58 278.61 192.84 271.29 189.92 264.43 C 188.62 274.53 190.01 284.89 189.24 295.07 C 188.61 299.73 179.60 299.03 180.03 294.11 C 179.87 282.40 180.02 270.68 179.96 258.97 C 180.08 256.61 179.80 253.62 181.99 252.07 Z" />
<path fill="#333333" opacity="1.00" d=" M 241.18 252.15 C 244.34 251.23 247.77 251.25 250.95 252.05 C 253.58 252.76 254.31 255.73 255.05 257.99 C 257.21 265.67 259.70 273.25 261.71 280.96 C 262.18 285.60 262.39 290.32 261.89 294.96 C 261.18 299.22 253.87 299.14 253.15 294.94 C 252.75 292.23 252.92 289.48 252.91 286.75 C 248.46 286.74 244.02 286.74 239.59 286.75 C 239.43 289.81 240.02 293.04 238.96 295.97 C 237.84 298.32 235.06 297.99 232.91 298.14 C 231.77 296.97 230.33 295.78 230.42 293.97 C 230.28 289.57 230.16 285.12 230.73 280.75 C 232.54 273.78 234.91 266.96 236.83 260.02 C 237.81 257.24 238.13 253.49 241.18 252.15 M 240.98 278.00 C 244.50 278.00 248.03 278.00 251.56 278.00 C 249.86 271.86 248.26 265.69 246.48 259.58 C 243.84 265.42 242.94 271.91 240.98 278.00 Z" />
<path fill="#333333" opacity="1.00" d=" M 269.41 257.06 C 269.42 254.78 270.19 251.58 273.06 251.70 C 280.68 251.51 289.36 250.22 295.86 255.17 C 302.58 260.92 300.85 273.73 291.87 276.22 C 293.66 277.37 295.69 278.41 296.75 280.36 C 298.81 283.46 298.21 287.35 298.40 290.86 C 300.00 292.68 300.81 295.80 298.47 297.41 C 295.40 299.26 290.43 298.36 288.73 295.01 C 287.23 290.27 289.81 284.58 286.67 280.32 C 284.55 278.90 281.83 279.38 279.42 279.20 C 279.26 284.43 279.81 289.71 279.03 294.90 C 278.51 298.15 274.65 298.48 272.07 297.81 C 269.41 296.71 269.42 293.45 269.36 291.02 C 269.39 279.70 269.28 268.38 269.41 257.06 M 279.42 259.23 C 279.41 263.41 279.42 267.59 279.42 271.78 C 282.15 271.65 285.19 272.15 287.63 270.61 C 290.75 268.23 290.83 262.62 287.60 260.29 C 285.14 258.81 282.14 259.35 279.42 259.23 Z" />
<path fill="#333333" opacity="1.00" d=" M 309.20 252.24 C 311.93 250.89 316.61 251.27 317.06 255.00 C 317.84 260.27 317.33 265.63 317.41 270.94 C 318.68 270.97 319.95 271.01 321.22 271.04 C 323.75 265.25 325.50 259.08 328.65 253.58 C 330.87 249.22 338.29 252.33 337.32 256.97 C 335.74 263.07 332.65 268.69 330.33 274.54 C 335.37 276.97 336.82 282.90 336.43 288.05 C 335.74 291.08 339.40 293.64 337.47 296.54 C 334.78 299.66 328.67 298.63 326.78 295.04 C 325.25 290.27 327.86 284.54 324.67 280.26 C 322.51 278.96 319.86 279.36 317.45 279.20 C 317.26 284.43 317.93 289.74 316.96 294.91 C 316.33 298.03 312.66 298.54 310.09 297.80 C 307.58 296.58 307.41 293.48 307.33 291.04 C 307.31 280.35 307.33 269.65 307.33 258.96 C 307.41 256.65 307.40 253.96 309.20 252.24 Z" />
<path fill="#333333" opacity="1.00" d=" M 348.41 252.53 C 350.64 251.05 354.10 251.14 355.96 253.21 C 357.45 255.11 357.27 257.68 357.36 259.97 C 357.32 270.32 357.39 280.66 357.34 291.01 C 357.33 293.59 356.92 297.09 353.93 297.87 C 351.81 298.19 349.10 298.37 347.62 296.48 C 346.30 294.61 346.35 292.20 346.29 290.02 C 346.31 279.66 346.28 269.30 346.30 258.95 C 346.38 256.71 346.43 254.00 348.41 252.53 Z" />
<path fill="#333333" opacity="1.00" d=" M 364.13 253.23 C 366.54 251.01 370.02 251.55 373.02 251.48 C 378.99 251.63 384.98 251.27 390.95 251.63 C 394.45 251.71 396.52 255.72 394.69 258.64 C 392.26 261.84 387.78 260.70 384.32 261.04 C 384.33 271.02 384.34 280.99 384.32 290.97 C 384.18 293.13 384.40 295.85 382.45 297.31 C 379.42 299.18 374.21 297.90 374.36 293.69 C 373.99 282.81 374.32 271.92 374.21 261.04 C 371.43 260.87 368.50 261.24 365.84 260.31 C 363.07 259.20 362.44 255.49 364.13 253.23 Z" />
</g>
</svg>
