<?xml version="1.0" standalone="no"?>
<!DOCTYPE svg PUBLIC "-//W3C//DTD SVG 20010904//EN"
 "http://www.w3.org/TR/2001/REC-SVG-20010904/DTD/svg10.dtd">
<svg version="1.0" xmlns="http://www.w3.org/2000/svg"
 width="896.000000pt" height="896.000000pt" viewBox="0 0 896.000000 896.000000"
 preserveAspectRatio="xMidYMid meet">
<metadata>
Created by potrace 1.14, written by Peter Selinger 2001-2017
</metadata>
<g transform="translate(0.000000,896.000000) scale(0.100000,-0.100000)"
fill="#000000" stroke="none">
<path d="M1727 8344 c-1 -1 -36 -5 -77 -8 -41 -4 -86 -9 -100 -11 -76 -10
-298 -87 -311 -107 -3 -6 -10 -10 -15 -10 -5 1 -31 -14 -59 -31 -27 -18 -55
-34 -61 -37 -12 -6 -79 -58 -100 -78 -8 -7 -14 -11 -14 -7 0 4 -52 -46 -115
-110 -63 -64 -115 -121 -115 -125 0 -5 -6 -15 -14 -23 -46 -46 -194 -306 -188
-329 1 -5 -2 -8 -7 -8 -5 0 -11 -10 -14 -22 -3 -13 -15 -50 -27 -83 -12 -33
-23 -67 -25 -75 -2 -8 -9 -37 -15 -65 -15 -62 -19 -87 -30 -150 -10 -64 -11
-4159 0 -4194 4 -14 13 -57 20 -96 7 -38 17 -76 23 -82 5 -7 7 -13 3 -13 -7 0
53 -171 65 -185 5 -5 9 -17 9 -27 0 -10 4 -18 10 -18 5 0 9 -3 8 -7 -5 -23
143 -275 189 -321 7 -7 13 -17 13 -21 0 -14 154 -166 225 -222 79 -63 196
-139 212 -139 6 0 13 -3 15 -8 3 -6 60 -34 183 -88 59 -26 212 -72 313 -94 68
-16 102 -28 102 -37 0 -7 4 -21 9 -31 6 -9 17 -42 27 -72 19 -63 117 -265 141
-292 9 -10 13 -18 10 -18 -4 0 9 -21 29 -47 20 -27 45 -61 57 -77 49 -65 141
-161 199 -208 22 -18 45 -38 52 -44 22 -21 134 -94 144 -94 6 0 12 -4 14 -8 2
-4 32 -22 68 -39 l65 -31 2200 3 c1210 2 2225 6 2255 9 30 3 71 9 90 12 19 3
44 7 55 9 46 8 176 46 219 64 25 11 48 20 51 20 34 1 290 151 385 226 35 29
242 235 235 235 -3 0 4 10 15 23 37 38 128 181 175 272 42 80 108 257 119 315
2 14 9 47 16 75 6 27 14 84 17 125 7 99 6 4020 -1 4085 -3 28 -8 64 -11 80 -2
17 -7 41 -9 55 -10 60 -61 236 -86 295 -4 11 -22 50 -39 86 -17 36 -31 70 -31
76 0 6 -3 13 -8 15 -4 2 -26 35 -49 74 -107 182 -275 356 -448 466 -79 51
-256 138 -279 138 -8 0 -17 4 -20 9 -3 5 -20 11 -38 14 -18 3 -55 11 -83 17
-27 7 -61 13 -75 14 -14 1 -30 4 -35 7 -24 12 -278 1 -364 -16 -33 -6 -147
-36 -161 -42 -8 -3 -34 -13 -57 -22 -33 -12 -127 -99 -424 -391 -504 -496
-914 -905 -1130 -1129 l-175 -181 -861 857 c-473 472 -1075 1070 -1337 1329
l-476 471 -98 31 c-53 17 -110 33 -127 37 -65 12 -89 16 -134 20 -25 2 -46 5
-46 5 0 2 -145 6 -148 4z"/>
</g>
</svg>
